<svg xmlns="http://www.w3.org/2000/svg" version="1.1" width="64px" height="64px" style="shape-rendering:geometricPrecision; text-rendering:geometricPrecision; image-rendering:optimizeQuality; fill-rule:evenodd; clip-rule:evenodd" xmlns:xlink="http://www.w3.org/1999/xlink">
<g><path style="opacity:0.921" fill="#fefffe" d="M 0.5,-0.5 C 7.5,-0.5 14.5,-0.5 21.5,-0.5C 22.7945,1.90699 24.4611,4.07365 26.5,6C 34.8333,6.33333 43.1667,6.66667 51.5,7C 53.3398,9.82627 54.0065,12.9929 53.5,16.5C 39.496,16.3334 25.496,16.5001 11.5,17C 7.21365,24.0457 3.21365,31.2123 -0.5,38.5C -0.5,25.8333 -0.5,13.1667 -0.5,0.5C 0.166667,0.5 0.5,0.166667 0.5,-0.5 Z"/></g>
<g><path style="opacity:0.96" fill="#fefffe" d="M 63.5,21.5 C 63.5,23.8333 63.5,26.1667 63.5,28.5C 59.9049,35.5167 55.9049,42.35 51.5,49C 34.0929,49.8182 16.7596,49.6515 -0.5,48.5C -0.5,46.8333 -0.5,45.1667 -0.5,43.5C 3.67856,35.6484 8.01189,27.815 12.5,20C 28.8333,19.3333 45.1667,19.3333 61.5,20C 62.0442,20.7172 62.7109,21.2172 63.5,21.5 Z"/></g>
</svg>
