<svg width="24" height="24" viewBox="0 0 24 24" fill="none" xmlns="http://www.w3.org/2000/svg">
<path d="M17.72 21.3333H5.71995C5.54314 21.3333 5.37357 21.4036 5.24855 21.5286C5.12352 21.6536 5.05328 21.8232 5.05328 22C5.05328 22.1768 5.12352 22.3464 5.24855 22.4714C5.37357 22.5964 5.54314 22.6666 5.71995 22.6666H17.72C17.8968 22.6666 18.0663 22.5964 18.1914 22.4714C18.3164 22.3464 18.3866 22.1768 18.3866 22C18.3866 21.8232 18.3164 21.6536 18.1914 21.5286C18.0663 21.4036 17.8968 21.3333 17.72 21.3333Z" fill="#fff"/>
<path d="M11.8333 1.33331C9.35798 1.33331 6.98401 2.31664 5.23367 4.06698C3.48333 5.81732 2.5 8.19129 2.5 10.6666C2.5 10.9666 2.5 11.26 2.54667 11.5533C2.71846 13.3535 3.40951 15.065 4.53581 16.4798C5.66211 17.8945 7.17515 18.9516 8.89101 19.5226C10.6069 20.0935 12.4516 20.1537 14.201 19.6958C15.9505 19.2379 17.5292 18.2817 18.7453 16.9434C19.9614 15.605 20.7626 13.9422 21.0514 12.157C21.3401 10.3719 21.1041 8.54131 20.3719 6.88781C19.6398 5.2343 18.443 3.8291 16.9272 2.84302C15.4113 1.85694 13.6417 1.33245 11.8333 1.33331ZM11.8333 2.66665C13.9413 2.66848 15.9633 3.50222 17.46 4.98665V5.65331C14.8251 4.74653 11.9608 4.75827 9.33333 5.68665C9.12344 5.48211 8.85996 5.34113 8.57333 5.27998H8.40667C8.32667 4.99998 8.25333 4.71998 8.19333 4.43331C8.13333 4.14665 8.1 3.89331 8.06667 3.61998C9.224 2.99542 10.5182 2.66786 11.8333 2.66665ZM9.83333 6.57998C12.2545 5.76922 14.8784 5.79976 17.28 6.66665C16.9552 8.36038 16.2458 9.95694 15.2067 11.3333C14.916 11.2102 14.5942 11.1807 14.286 11.2488C13.9778 11.3169 13.6984 11.4792 13.4867 11.7133C13.2533 11.58 13.02 11.4466 12.82 11.2933C11.4742 10.3954 10.3503 9.20308 9.53333 7.80665C9.66537 7.64292 9.7615 7.45326 9.81549 7.24997C9.86947 7.04668 9.88009 6.83431 9.84667 6.62665L9.83333 6.57998ZM7.16667 4.17998C7.16667 4.31998 7.20667 4.46665 7.23333 4.60665C7.29333 4.89998 7.37333 5.18665 7.45333 5.47331C7.19804 5.62449 6.99258 5.84706 6.86227 6.11361C6.73196 6.38015 6.6825 6.679 6.72 6.97331C5.66767 7.66051 4.72771 8.50602 3.93333 9.47998C4.09273 8.42516 4.46149 7.41286 5.01791 6.50267C5.57433 5.59247 6.30718 4.80275 7.17333 4.17998H7.16667ZM7.16667 14.6533C6.90642 14.7407 6.67383 14.8952 6.4924 15.1012C6.31096 15.3072 6.1871 15.5574 6.13333 15.8266H5.70667C4.63005 14.5425 3.98614 12.9514 3.86667 11.28L3.94 11.1533C4.77481 9.85888 5.86618 8.74936 7.14667 7.89331C7.33865 8.09382 7.58126 8.2387 7.84883 8.31263C8.1164 8.38657 8.39898 8.3868 8.66667 8.31331C9.55837 9.8202 10.7773 11.1075 12.2333 12.08C12.5067 12.26 12.7867 12.4266 13.0667 12.5866C13.0443 12.8416 13.0855 13.0982 13.1867 13.3333C11.9666 14.3021 10.5594 15.008 9.05333 15.4066C8.87868 15.0803 8.59371 14.8267 8.24931 14.6912C7.90492 14.5556 7.52355 14.5469 7.17333 14.6666L7.16667 14.6533ZM11.8333 18.6533C10.4775 18.6537 9.14409 18.3071 7.96 17.6466L8.14667 17.6066C8.41195 17.5196 8.64902 17.363 8.83312 17.1531C9.01723 16.9432 9.14162 16.6877 9.19333 16.4133C10.898 15.9786 12.4894 15.1829 13.86 14.08C14.1856 14.2702 14.57 14.3333 14.9393 14.257C15.3086 14.1807 15.6365 13.9704 15.86 13.6666C16.8006 13.9112 17.7682 14.0366 18.74 14.04H19.0933C18.4502 15.423 17.425 16.5934 16.1387 17.4131C14.8524 18.2329 13.3586 18.6678 11.8333 18.6666V18.6533ZM16.1733 12.72C16.1727 12.4406 16.0967 12.1665 15.9533 11.9266C17.0628 10.4774 17.8349 8.79883 18.2133 7.01331C18.5467 7.16887 18.8756 7.3422 19.2 7.53331C19.9332 9.26592 20.0324 11.2015 19.48 13C18.3732 13.0856 17.2598 12.9978 16.18 12.74L16.1733 12.72Z" fill="#fff"/>
</svg>
